<svg xmlns="http://www.w3.org/2000/svg" xmlns:xlink="http://www.w3.org/1999/xlink" id="Layer_1" x="0" y="0" version="1.1" viewBox="0 0 36 36" xml:space="preserve" style="enable-background:new 0 0 36 36"><style type="text/css">.st48{fill-rule:evenodd;clip-rule:evenodd;fill:#fff}</style><g><path d="M18,1.4C8.6,1.4,1,9,1,18.4c0,7.5,4.9,13.9,11.6,16.1c0.8,0.2,1.2-0.4,1.2-0.8c0-0.4,0-1.5,0-2.9 C9,31.9,8,28.6,8,28.6c-0.8-2-1.9-2.5-1.9-2.5c-1.5-1.1,0.1-1,0.1-1c1.7,0.1,2.6,1.8,2.6,1.8c1.5,2.6,4,1.8,4.9,1.4 c0.2-1.1,0.6-1.8,1.1-2.3c-3.8-0.4-7.7-1.9-7.7-8.4c0-1.9,0.7-3.4,1.7-4.6c-0.2-0.4-0.8-2.2,0.2-4.5c0,0,1.4-0.5,4.7,1.7 c1.4-0.4,2.8-0.6,4.3-0.6c1.4,0,2.9,0.2,4.3,0.6c3.2-2.2,4.7-1.7,4.7-1.7c0.9,2.3,0.3,4.1,0.2,4.5c1.1,1.2,1.7,2.7,1.7,4.6 c0,6.5-4,8-7.8,8.4c0.6,0.5,1.2,1.6,1.2,3.1c0,2.3,0,4.1,0,4.7c0,0.5,0.3,1,1.2,0.8C30.1,32.3,35,25.9,35,18.4 C35,9,27.4,1.4,18,1.4" class="st48"/></g></svg>