<svg xmlns="http://www.w3.org/2000/svg" xmlns:xlink="http://www.w3.org/1999/xlink" id="Layer_1" x="0" y="0" version="1.1" viewBox="0 0 27 36" xml:space="preserve" style="enable-background:new 0 0 27 36"><style type="text/css">.st13{fill:#fff}</style><g><polygon points="21.4 30.3 21.4 22.3 24.1 22.3 24.1 33 0 33 0 22.3 2.7 22.3 2.7 30.3" class="st13"/><path d="M5.6,21.6l13.1,2.8l0.6-2.6L6.2,18.9L5.6,21.6z M7.4,15.3l12.1,5.7l1.1-2.4L8.5,12.9L7.4,15.3z M10.7,9.3 L21,17.9l1.7-2.1L12.4,7.3L10.7,9.3z M17.4,3l-2.1,1.6l8,10.7l2.1-1.6L17.4,3z M5.4,27.6h13.4V25H5.4V27.6z" class="st13"/></g></svg>